<svg width="221" height="29" viewBox="0 0 221 29" fill="none" xmlns="http://www.w3.org/2000/svg">
<path d="M6.58942 26.8518H1.24198C0.80499 26.8518 0.482994 26.7602 0.275997 26.5769C0.0919989 26.3706 0 26.0499 0 25.6145V3.3425C0 2.90714 0.0919989 2.59781 0.275997 2.4145C0.482994 2.20827 0.80499 2.10516 1.24198 2.10516H11.7989C14.9268 2.10516 17.0658 2.72383 18.2158 3.96116C19.3658 5.1985 19.9408 6.8139 19.9408 8.80739V13.2068C19.9408 15.2003 19.3658 16.8157 18.2158 18.053C17.0658 19.2903 14.9268 19.909 11.7989 19.909H7.8314V25.6145C7.8314 26.0499 7.7279 26.3706 7.52091 26.5769C7.33691 26.7602 7.02641 26.8518 6.58942 26.8518ZM7.7624 8.53242V13.7223H10.8674C11.5344 13.7223 11.9714 13.5505 12.1783 13.2068C12.3853 12.8631 12.4888 12.4736 12.4888 12.0382V10.2166C12.4888 9.78121 12.3853 9.39168 12.1783 9.04798C11.9714 8.70427 11.5344 8.53242 10.8674 8.53242H7.7624Z" fill="white"/>
<path d="M31.3213 9.32294L29.6998 14.5472H35.1163L33.4948 9.32294C33.4028 9.11672 33.2993 8.96778 33.1843 8.87613C33.0923 8.78447 32.9773 8.73865 32.8393 8.73865H31.9768C31.8388 8.73865 31.7123 8.78447 31.5973 8.87613C31.5053 8.96778 31.4133 9.11672 31.3213 9.32294ZM29.3548 25.6145C29.3548 26.0499 29.2513 26.3706 29.0443 26.5769C28.8603 26.7602 28.5498 26.8518 28.1128 26.8518H23.0414C22.6044 26.8518 22.2824 26.7602 22.0754 26.5769C21.8914 26.3706 21.7994 26.0499 21.7994 25.6145V16.5407C21.7994 15.8533 21.9029 15.0628 22.1099 14.1692C22.3399 13.2755 22.6849 12.233 23.1449 11.0415L26.1464 3.23939C26.2844 2.84985 26.4914 2.56343 26.7674 2.38013C27.0664 2.19682 27.4458 2.10516 27.9058 2.10516H37.1862C37.6232 2.10516 37.9797 2.19682 38.2557 2.38013C38.5547 2.56343 38.7732 2.84985 38.9112 3.23939L41.9127 11.0415C42.3727 12.233 42.7062 13.2755 42.9132 14.1692C43.1432 15.0628 43.2582 15.8533 43.2582 16.5407V25.6145C43.2582 26.0499 43.1547 26.3706 42.9477 26.5769C42.7637 26.7602 42.4532 26.8518 42.0162 26.8518H36.8067C36.3467 26.8518 36.0017 26.7602 35.7717 26.5769C35.5647 26.3706 35.4613 26.0499 35.4613 25.6145V20.8026H29.3548V25.6145Z" fill="white"/>
<path d="M47.3453 26.8518C46.9083 26.8518 46.5863 26.7602 46.3793 26.5769C46.1953 26.3706 46.1033 26.0499 46.1033 25.6145V21.5244C46.1033 21.0891 46.1953 20.7797 46.3793 20.5964C46.5863 20.3902 46.9083 20.2871 47.3453 20.2871H50.7607V8.73865H47.3453C46.9083 8.73865 46.5863 8.64699 46.3793 8.46368C46.1953 8.25746 46.1033 7.93667 46.1033 7.50131V3.3425C46.1033 2.90714 46.1953 2.59781 46.3793 2.4145C46.5863 2.20827 46.9083 2.10516 47.3453 2.10516H62.0421C62.4791 2.10516 62.7896 2.20827 62.9736 2.4145C63.1806 2.59781 63.2841 2.90714 63.2841 3.3425V7.50131C63.2841 7.93667 63.1806 8.25746 62.9736 8.46368C62.7896 8.64699 62.4791 8.73865 62.0421 8.73865H58.6956V20.2871H62.0421C62.4791 20.2871 62.7896 20.3902 62.9736 20.5964C63.1806 20.7797 63.2841 21.0891 63.2841 21.5244V25.6145C63.2841 26.0499 63.1806 26.3706 62.9736 26.5769C62.7896 26.7602 62.4791 26.8518 62.0421 26.8518H47.3453Z" fill="white"/>
<path d="M73.0981 26.8518H67.9232C67.4862 26.8518 67.1642 26.7602 66.9572 26.5769C66.7732 26.3706 66.6812 26.0499 66.6812 25.6145V3.3425C66.6812 2.90714 66.7732 2.59781 66.9572 2.4145C67.1642 2.20827 67.4862 2.10516 67.9232 2.10516H71.5111C71.9481 2.10516 72.3161 2.1739 72.6151 2.31139C72.9371 2.44887 73.2476 2.68946 73.5466 3.03316L80.2395 10.6634V3.3425C80.2395 2.90714 80.3315 2.59781 80.5155 2.4145C80.7225 2.20827 81.0445 2.10516 81.4815 2.10516H86.6564C87.0934 2.10516 87.404 2.20827 87.588 2.4145C87.7949 2.59781 87.8984 2.90714 87.8984 3.3425V25.6145C87.8984 26.0499 87.7949 26.3706 87.588 26.5769C87.404 26.7602 87.0934 26.8518 86.6564 26.8518H81.4815C81.0445 26.8518 80.7225 26.7602 80.5155 26.5769C80.3315 26.3706 80.2395 26.0499 80.2395 25.6145V21.3869L74.3401 14.2723V25.6145C74.3401 26.0499 74.2366 26.3706 74.0296 26.5769C73.8456 26.7602 73.5351 26.8518 73.0981 26.8518Z" fill="white"/>
<path d="M134.126 26.8518H122.499C122.062 26.8518 121.74 26.7602 121.533 26.5769C121.349 26.3706 121.257 26.0498 121.257 25.6145V3.3425C121.257 2.90714 121.349 2.5978 121.533 2.4145C121.74 2.20827 122.062 2.10516 122.499 2.10516H134.126C137.001 2.10516 139.128 2.678 140.508 3.82368C141.911 4.96936 142.613 6.73371 142.613 9.11672V19.8403C142.613 22.2233 141.911 23.9876 140.508 25.1333C139.128 26.279 137.001 26.8518 134.126 26.8518ZM129.089 8.6699V20.3558H133.194C133.746 20.3558 134.149 20.2183 134.402 19.9434C134.678 19.6684 134.816 19.2445 134.816 18.6717V10.3197C134.816 9.74684 134.678 9.3344 134.402 9.08235C134.149 8.80738 133.746 8.6699 133.194 8.6699H129.089Z" fill="white"/>
<path d="M163.005 26.8518H146.997C146.56 26.8518 146.238 26.7602 146.031 26.5769C145.847 26.3706 145.755 26.0498 145.755 25.6145V3.3425C145.755 2.90714 145.847 2.5978 146.031 2.4145C146.238 2.20827 146.56 2.10516 146.997 2.10516H163.005C163.442 2.10516 163.752 2.20827 163.936 2.4145C164.143 2.5978 164.247 2.90714 164.247 3.3425V7.36383C164.247 7.79919 164.143 8.11998 163.936 8.3262C163.752 8.50951 163.442 8.60116 163.005 8.60116H153.483V11.2477H160.21C160.647 11.2477 160.958 11.3508 161.142 11.557C161.349 11.7403 161.452 12.0497 161.452 12.485V16.1626C161.452 16.598 161.349 16.9188 161.142 17.125C160.958 17.3083 160.647 17.4 160.21 17.4H153.483V20.3558H163.005C163.442 20.3558 163.752 20.4589 163.936 20.6652C164.143 20.8485 164.247 21.1578 164.247 21.5932V25.6145C164.247 26.0498 164.143 26.3706 163.936 26.5769C163.752 26.7602 163.442 26.8518 163.005 26.8518Z" fill="white"/>
<path d="M183.822 26.8518H175.404C172.529 26.8518 170.39 26.279 168.987 25.1333C167.607 23.9876 166.917 22.2233 166.917 19.8403V9.15109C166.917 6.76808 167.607 5.00373 168.987 3.85805C170.39 2.68946 172.529 2.10516 175.404 2.10516H183.822C184.259 2.10516 184.57 2.20827 184.754 2.4145C184.961 2.5978 185.064 2.90714 185.064 3.3425V7.50131C185.064 7.93667 184.961 8.25746 184.754 8.46368C184.57 8.64699 184.259 8.73864 183.822 8.73864H176.888C176.175 8.73864 175.646 8.88758 175.301 9.18546C174.956 9.46042 174.783 9.88432 174.783 10.4572V18.6373C174.783 19.2102 174.956 19.6341 175.301 19.909C175.646 20.1611 176.175 20.2871 176.888 20.2871H183.822C184.259 20.2871 184.57 20.3902 184.754 20.5964C184.961 20.7797 185.064 21.0891 185.064 21.5244V25.6145C185.064 26.0498 184.961 26.3706 184.754 26.5769C184.57 26.7602 184.259 26.8518 183.822 26.8518Z" fill="white"/>
<path d="M194.687 26.8518H189.34C188.903 26.8518 188.581 26.7602 188.374 26.5769C188.19 26.3706 188.098 26.0498 188.098 25.6145V3.3425C188.098 2.90714 188.19 2.5978 188.374 2.4145C188.581 2.20827 188.903 2.10516 189.34 2.10516H194.687C195.124 2.10516 195.435 2.20827 195.619 2.4145C195.826 2.5978 195.929 2.90714 195.929 3.3425V11.2477H197.309L200.863 3.23938C201.024 2.82694 201.242 2.54052 201.518 2.38013C201.794 2.19682 202.151 2.10516 202.588 2.10516H207.9C208.291 2.10516 208.556 2.20827 208.694 2.4145C208.832 2.5978 208.82 2.87277 208.659 3.23938L205.141 11.2477C206.429 11.3164 207.452 11.7747 208.211 12.6225C208.993 13.4474 209.384 14.5472 209.384 15.9221V25.6145C209.384 26.0498 209.28 26.3706 209.073 26.5769C208.889 26.7602 208.579 26.8518 208.142 26.8518H202.829C202.392 26.8518 202.07 26.7602 201.863 26.5769C201.679 26.3706 201.587 26.0498 201.587 25.6145V18.9123C201.587 18.5457 201.495 18.2592 201.311 18.053C201.127 17.8468 200.851 17.7437 200.483 17.7437H195.929V25.6145C195.929 26.0498 195.826 26.3706 195.619 26.5769C195.435 26.7602 195.124 26.8518 194.687 26.8518Z" fill="white"/>
<path d="M219.202 17.8468H213.855C213.418 17.8468 213.096 17.7551 212.889 17.5718C212.705 17.3656 212.601 17.0448 212.578 16.6095L212.061 3.3425C212.038 2.90714 212.118 2.59781 212.302 2.4145C212.486 2.20827 212.797 2.10516 213.234 2.10516H219.823C220.26 2.10516 220.571 2.20827 220.755 2.4145C220.939 2.59781 221.019 2.90714 220.996 3.3425L220.513 16.6095C220.49 17.0448 220.375 17.3656 220.168 17.5718C219.961 17.7551 219.639 17.8468 219.202 17.8468ZM219.72 26.8518H213.372C212.935 26.8518 212.613 26.7602 212.406 26.5769C212.222 26.3706 212.13 26.0499 212.13 25.6145V21.112C212.13 20.6766 212.222 20.3673 212.406 20.184C212.613 19.9778 212.935 19.8746 213.372 19.8746H219.72C220.157 19.8746 220.467 19.9778 220.651 20.184C220.858 20.3673 220.962 20.6766 220.962 21.112V25.6145C220.962 26.0499 220.858 26.3706 220.651 26.5769C220.467 26.7602 220.157 26.8518 219.72 26.8518Z" fill="white"/>
<path fill-rule="evenodd" clip-rule="evenodd" d="M94.0628 0C93.1795 0 92.4634 0.713393 92.4634 1.59341V27.4066C92.4634 28.2866 93.1795 29 94.0628 29H115.121C116.005 29 116.721 28.2866 116.721 27.4066V1.59341C116.721 0.713392 116.005 0 115.121 0H94.0628ZM95.815 12.2504C95.9031 12.318 96.0402 12.3518 96.2262 12.3518H102.481C102.667 12.3518 102.8 12.318 102.878 12.2504C102.966 12.1743 103.01 12.0559 103.01 11.8953V10.3864C103.01 10.2258 102.966 10.1117 102.878 10.044C102.8 9.96796 102.667 9.92992 102.481 9.92992H101.057V5.66943H102.481C102.667 5.66943 102.8 5.63561 102.878 5.56799C102.966 5.49191 103.01 5.37356 103.01 5.21294V3.67866C103.01 3.51805 102.966 3.40393 102.878 3.3363C102.8 3.26022 102.667 3.22218 102.481 3.22218H96.2262C96.0402 3.22218 95.9031 3.26022 95.815 3.3363C95.7367 3.40393 95.6975 3.51805 95.6975 3.67866V5.21294C95.6975 5.37356 95.7367 5.49191 95.815 5.56799C95.9031 5.63561 96.0402 5.66943 96.2262 5.66943H97.6798V9.92992H96.2262C96.0402 9.92992 95.9031 9.96796 95.815 10.044C95.7367 10.1117 95.6975 10.2258 95.6975 10.3864V11.8953C95.6975 12.0559 95.7367 12.1743 95.815 12.2504ZM104.985 12.3518H107.187C107.373 12.3518 107.505 12.318 107.584 12.2504C107.672 12.1743 107.716 12.0559 107.716 11.8953V7.71091L110.227 10.3357V11.8953C110.227 12.0559 110.266 12.1743 110.344 12.2504C110.432 12.318 110.569 12.3518 110.755 12.3518H112.958C113.144 12.3518 113.276 12.318 113.354 12.2504C113.442 12.1743 113.486 12.0559 113.486 11.8953V3.67866C113.486 3.51805 113.442 3.40393 113.354 3.3363C113.276 3.26022 113.144 3.22218 112.958 3.22218H110.755C110.569 3.22218 110.432 3.26022 110.344 3.3363C110.266 3.40393 110.227 3.51805 110.227 3.67866V6.37951L107.378 3.56454C107.251 3.43774 107.119 3.34898 106.982 3.29826C106.854 3.24754 106.698 3.22218 106.512 3.22218H104.985C104.799 3.22218 104.661 3.26022 104.573 3.3363C104.495 3.40393 104.456 3.51805 104.456 3.67866V11.8953C104.456 12.0559 104.495 12.1743 104.573 12.2504C104.661 12.318 104.799 12.3518 104.985 12.3518ZM98.091 25.3911H96.1633C95.9994 25.3911 95.8787 25.3567 95.8011 25.288C95.7321 25.2106 95.6976 25.0903 95.6976 24.9271V16.5751C95.6976 16.4118 95.7321 16.2958 95.8011 16.2271C95.8787 16.1498 95.9994 16.1111 96.1633 16.1111H98.2462C98.3842 16.1111 98.4964 16.1412 98.5826 16.2013C98.6775 16.2615 98.7637 16.3603 98.8413 16.4978L100.006 18.5986C100.049 18.676 100.083 18.7318 100.109 18.7662C100.144 18.8006 100.187 18.8178 100.239 18.8178H100.355C100.407 18.8178 100.446 18.8006 100.471 18.7662C100.506 18.7318 100.545 18.676 100.588 18.5986L101.739 16.4978C101.817 16.3603 101.899 16.2615 101.985 16.2013C102.08 16.1412 102.196 16.1111 102.334 16.1111H104.43C104.594 16.1111 104.711 16.1498 104.78 16.2271C104.857 16.2958 104.896 16.4118 104.896 16.5751V24.9271C104.896 25.0903 104.857 25.2106 104.78 25.288C104.711 25.3567 104.594 25.3911 104.43 25.3911H102.438C102.274 25.3911 102.153 25.3567 102.076 25.288C102.007 25.2106 101.972 25.0903 101.972 24.9271V20.3902L101.209 21.7951C101.131 21.9412 101.036 22.0486 100.924 22.1173C100.821 22.1775 100.687 22.2075 100.523 22.2075H100.006C99.8418 22.2075 99.7038 22.1775 99.5917 22.1173C99.4882 22.0486 99.3977 21.9412 99.32 21.7951L98.5567 20.3902V24.9271C98.5567 25.0903 98.5179 25.2106 98.4403 25.288C98.3713 25.3567 98.2549 25.3911 98.091 25.3911ZM108.979 25.3911H111.075C111.239 25.3911 111.356 25.3567 111.425 25.288C111.502 25.2106 111.541 25.0903 111.541 24.9271V23.2902L113.508 20.6351C113.697 20.3687 113.827 20.1367 113.896 19.9391C113.965 19.7415 113.999 19.445 113.999 19.0498V16.5751C113.999 16.4118 113.96 16.2958 113.883 16.2271C113.814 16.1498 113.697 16.1111 113.533 16.1111H111.606C111.442 16.1111 111.321 16.1498 111.244 16.2271C111.175 16.2958 111.14 16.4118 111.14 16.5751V18.6889C111.14 18.7748 111.136 18.865 111.127 18.9595C111.118 19.0541 111.084 19.1443 111.024 19.2302L110.428 20.1582C110.385 20.2355 110.338 20.2914 110.286 20.3258C110.243 20.3601 110.187 20.3773 110.118 20.3773H109.989C109.92 20.3773 109.859 20.3601 109.807 20.3258C109.764 20.2914 109.721 20.2355 109.678 20.1582L109.083 19.2302C109.023 19.1443 108.988 19.0541 108.979 18.9595C108.971 18.865 108.967 18.7748 108.967 18.6889V16.5751C108.967 16.4118 108.928 16.2958 108.85 16.2271C108.781 16.1498 108.665 16.1111 108.501 16.1111H106.508C106.345 16.1111 106.224 16.1498 106.146 16.2271C106.077 16.2958 106.043 16.4118 106.043 16.5751V19.0498C106.043 19.445 106.073 19.7415 106.133 19.9391C106.202 20.1367 106.336 20.3687 106.534 20.6351L108.514 23.2773V24.9271C108.514 25.0903 108.548 25.2106 108.617 25.288C108.695 25.3567 108.816 25.3911 108.979 25.3911Z" fill="white"/>
</svg>
