<svg width="691" height="91" viewBox="0 0 691 91" fill="none" xmlns="http://www.w3.org/2000/svg">
<path d="M20.5997 84.2593H3.88267C2.51654 84.2593 1.50993 83.9717 0.862815 83.3965C0.287605 82.7494 0 81.7428 0 80.3766V10.4886C0 9.1225 0.287605 8.15184 0.862815 7.57662C1.50993 6.92951 2.51654 6.60596 3.88267 6.60596H36.8853C46.6639 6.60596 53.3507 8.54729 56.9458 12.43C60.5409 16.3126 62.3384 21.3817 62.3384 27.6371V41.4421C62.3384 47.6975 60.5409 52.7666 56.9458 56.6492C53.3507 60.5319 46.6639 62.4732 36.8853 62.4732H24.4824V80.3766C24.4824 81.7428 24.1588 82.7494 23.5117 83.3965C22.9365 83.9717 21.9658 84.2593 20.5997 84.2593ZM24.2667 26.7743V43.0599H33.9733C36.0585 43.0599 37.4246 42.5206 38.0717 41.4421C38.7188 40.3636 39.0424 39.1413 39.0424 37.7752V32.059C39.0424 30.6929 38.7188 29.4706 38.0717 28.392C37.4246 27.3135 36.0585 26.7743 33.9733 26.7743H24.2667Z" fill="#F9C545"/>
<path d="M97.916 29.2548L92.847 45.6483H109.78L104.711 29.2548C104.423 28.6077 104.1 28.1404 103.74 27.8528C103.452 27.5652 103.093 27.4214 102.662 27.4214H99.9652C99.5338 27.4214 99.1384 27.5652 98.7789 27.8528C98.4912 28.1404 98.2036 28.6077 97.916 29.2548ZM91.7685 80.3766C91.7685 81.7428 91.4449 82.7494 90.7978 83.3965C90.2226 83.9717 89.2519 84.2593 87.8858 84.2593H72.0316C70.6655 84.2593 69.6588 83.9717 69.0117 83.3965C68.4365 82.7494 68.1489 81.7428 68.1489 80.3766V51.9037C68.1489 49.7467 68.4725 47.2661 69.1196 44.462C69.8386 41.6578 70.9171 38.3863 72.3551 34.6474L81.7382 10.1651C82.1697 8.94275 82.8168 8.04398 83.6796 7.46877C84.6143 6.89356 85.8007 6.60596 87.2387 6.60596H116.251C117.617 6.60596 118.731 6.89356 119.594 7.46877C120.529 8.04398 121.212 8.94275 121.643 10.1651L131.027 34.6474C132.465 38.3863 133.507 41.6578 134.154 44.462C134.873 47.2661 135.233 49.7467 135.233 51.9037V80.3766C135.233 81.7428 134.909 82.7494 134.262 83.3965C133.687 83.9717 132.716 84.2593 131.35 84.2593H115.064C113.626 84.2593 112.548 83.9717 111.829 83.3965C111.182 82.7494 110.858 81.7428 110.858 80.3766V65.2774H91.7685V80.3766Z" fill="#F9C545"/>
<path d="M148.01 84.2593C146.644 84.2593 145.637 83.9717 144.99 83.3965C144.415 82.7494 144.127 81.7428 144.127 80.3766V67.5423C144.127 66.1761 144.415 65.2055 144.99 64.6303C145.637 63.9832 146.644 63.6596 148.01 63.6596H158.687V27.4214H148.01C146.644 27.4214 145.637 27.1338 144.99 26.5586C144.415 25.9114 144.127 24.9048 144.127 23.5387V10.4886C144.127 9.1225 144.415 8.15184 144.99 7.57662C145.637 6.92951 146.644 6.60596 148.01 6.60596H193.955C195.321 6.60596 196.292 6.92951 196.867 7.57662C197.514 8.15184 197.837 9.1225 197.837 10.4886V23.5387C197.837 24.9048 197.514 25.9114 196.867 26.5586C196.292 27.1338 195.321 27.4214 193.955 27.4214H183.493V63.6596H193.955C195.321 63.6596 196.292 63.9832 196.867 64.6303C197.514 65.2055 197.837 66.1761 197.837 67.5423V80.3766C197.837 81.7428 197.514 82.7494 196.867 83.3965C196.292 83.9717 195.321 84.2593 193.955 84.2593H148.01Z" fill="#F9C545"/>
<path d="M228.518 84.2593H212.34C210.974 84.2593 209.967 83.9717 209.32 83.3965C208.745 82.7494 208.457 81.7428 208.457 80.3766V10.4886C208.457 9.1225 208.745 8.15184 209.32 7.57662C209.967 6.92951 210.974 6.60596 212.34 6.60596H223.557C224.923 6.60596 226.073 6.82166 227.008 7.25307C228.015 7.68448 228.985 8.43944 229.92 9.51796L250.843 33.4611V10.4886C250.843 9.1225 251.131 8.15184 251.706 7.57662C252.353 6.92951 253.36 6.60596 254.726 6.60596H270.904C272.27 6.60596 273.241 6.92951 273.816 7.57662C274.463 8.15184 274.786 9.1225 274.786 10.4886V80.3766C274.786 81.7428 274.463 82.7494 273.816 83.3965C273.241 83.9717 272.27 84.2593 270.904 84.2593H254.726C253.36 84.2593 252.353 83.9717 251.706 83.3965C251.131 82.7494 250.843 81.7428 250.843 80.3766V67.1109L232.401 44.7855V80.3766C232.401 81.7428 232.077 82.7494 231.43 83.3965C230.855 83.9717 229.884 84.2593 228.518 84.2593Z" fill="#F9C545"/>
<path d="M419.302 84.2593H382.955C381.589 84.2593 380.583 83.9717 379.936 83.3965C379.36 82.7494 379.073 81.7427 379.073 80.3766V10.4886C379.073 9.1225 379.36 8.15183 379.936 7.57662C380.583 6.92951 381.589 6.60596 382.955 6.60596H419.302C428.289 6.60596 434.94 8.40348 439.254 11.9985C443.64 15.5936 445.833 21.13 445.833 28.6077V62.2575C445.833 69.7353 443.64 75.2716 439.254 78.8667C434.94 82.4618 428.289 84.2593 419.302 84.2593ZM403.555 27.2057V63.8753H416.39C418.115 63.8753 419.373 63.4439 420.164 62.5811C421.027 61.7183 421.459 60.3881 421.459 58.5906V32.3826C421.459 30.585 421.027 29.2908 420.164 28.4999C419.373 27.6371 418.115 27.2057 416.39 27.2057H403.555Z" fill="#F9C545"/>
<path d="M509.583 84.2593H459.539C458.173 84.2593 457.166 83.9717 456.519 83.3965C455.944 82.7494 455.657 81.7427 455.657 80.3766V10.4886C455.657 9.1225 455.944 8.15183 456.519 7.57662C457.166 6.92951 458.173 6.60596 459.539 6.60596H509.583C510.949 6.60596 511.919 6.92951 512.495 7.57662C513.142 8.15183 513.465 9.1225 513.465 10.4886V23.1073C513.465 24.4734 513.142 25.48 512.495 26.1271C511.919 26.7024 510.949 26.99 509.583 26.99H479.815V35.2946H500.846C502.213 35.2946 503.183 35.6181 503.758 36.2652C504.406 36.8404 504.729 37.8111 504.729 39.1772V50.7174C504.729 52.0835 504.406 53.0901 503.758 53.7372C503.183 54.3124 502.213 54.6 500.846 54.6H479.815V63.8753H509.583C510.949 63.8753 511.919 64.1988 512.495 64.846C513.142 65.4212 513.465 66.3918 513.465 67.758V80.3766C513.465 81.7427 513.142 82.7494 512.495 83.3965C511.919 83.9717 510.949 84.2593 509.583 84.2593Z" fill="#F9C545"/>
<path d="M574.662 84.2593H548.346C539.358 84.2593 532.672 82.4618 528.286 78.8667C523.971 75.2716 521.814 69.7353 521.814 62.2575V28.7156C521.814 21.2379 523.971 15.7015 528.286 12.1064C532.672 8.43944 539.358 6.60596 548.346 6.60596H574.662C576.028 6.60596 576.999 6.92951 577.574 7.57662C578.221 8.15183 578.545 9.1225 578.545 10.4886V23.5387C578.545 24.9048 578.221 25.9114 577.574 26.5585C576.999 27.1338 576.028 27.4214 574.662 27.4214H552.984C550.755 27.4214 549.101 27.8887 548.022 28.8234C546.944 29.6863 546.405 31.0164 546.405 32.814V58.4827C546.405 60.2802 546.944 61.6104 548.022 62.4732C549.101 63.2641 550.755 63.6596 552.984 63.6596H574.662C576.028 63.6596 576.999 63.9831 577.574 64.6303C578.221 65.2055 578.545 66.1761 578.545 67.5423V80.3766C578.545 81.7427 578.221 82.7494 577.574 83.3965C576.999 83.9717 576.028 84.2593 574.662 84.2593Z" fill="#F9C545"/>
<path d="M608.628 84.2593H591.911C590.544 84.2593 589.538 83.9717 588.891 83.3965C588.315 82.7494 588.028 81.7427 588.028 80.3766V10.4886C588.028 9.1225 588.315 8.15183 588.891 7.57662C589.538 6.92951 590.544 6.60596 591.911 6.60596H608.628C609.994 6.60596 610.964 6.92951 611.54 7.57662C612.187 8.15183 612.51 9.1225 612.51 10.4886V35.2946H616.824L627.933 10.1651C628.436 8.87084 629.119 7.97208 629.982 7.46877C630.845 6.89356 631.96 6.60596 633.326 6.60596H649.935C651.157 6.60596 651.984 6.92951 652.415 7.57662C652.847 8.15183 652.811 9.01465 652.308 10.1651L641.307 35.2946C645.333 35.5103 648.533 36.9483 650.906 39.6086C653.35 42.1971 654.572 45.6483 654.572 49.9624V80.3766C654.572 81.7427 654.249 82.7494 653.602 83.3965C653.027 83.9717 652.056 84.2593 650.69 84.2593H634.081C632.715 84.2593 631.708 83.9717 631.061 83.3965C630.486 82.7494 630.198 81.7427 630.198 80.3766V59.3455C630.198 58.1951 629.91 57.2963 629.335 56.6492C628.76 56.0021 627.897 55.6786 626.747 55.6786H612.51V80.3766C612.51 81.7427 612.187 82.7494 611.54 83.3965C610.964 83.9717 609.994 84.2593 608.628 84.2593Z" fill="#F9C545"/>
<path d="M685.266 56.0021H668.549C667.183 56.0021 666.176 55.7145 665.529 55.1393C664.954 54.4922 664.63 53.4856 664.558 52.1195L662.94 10.4886C662.869 9.1225 663.12 8.15184 663.695 7.57662C664.271 6.92951 665.241 6.60596 666.607 6.60596H687.207C688.573 6.60596 689.544 6.92951 690.119 7.57662C690.694 8.15184 690.946 9.1225 690.874 10.4886L689.364 52.1195C689.292 53.4856 688.933 54.4922 688.286 55.1393C687.639 55.7145 686.632 56.0021 685.266 56.0021ZM686.884 84.2593H667.039C665.673 84.2593 664.666 83.9717 664.019 83.3965C663.444 82.7494 663.156 81.7428 663.156 80.3766V66.248C663.156 64.8819 663.444 63.9113 664.019 63.336C664.666 62.6889 665.673 62.3654 667.039 62.3654H686.884C688.25 62.3654 689.22 62.6889 689.796 63.336C690.443 63.9113 690.766 64.8819 690.766 66.248V80.3766C690.766 81.7428 690.443 82.7494 689.796 83.3965C689.22 83.9717 688.25 84.2593 686.884 84.2593Z" fill="#F9C545"/>
<path fill-rule="evenodd" clip-rule="evenodd" d="M294.057 0C291.295 0 289.057 2.23858 289.057 5V86C289.057 88.7614 291.295 91 294.057 91H359.89C362.651 91 364.89 88.7614 364.89 86V5C364.89 2.23858 362.651 0 359.89 0H294.057ZM299.534 38.4408C299.81 38.653 300.238 38.7591 300.82 38.7591H320.375C320.956 38.7591 321.369 38.653 321.614 38.4408C321.89 38.2021 322.027 37.8307 322.027 37.3267V32.5918C322.027 32.0878 321.89 31.7297 321.614 31.5175C321.369 31.2788 320.956 31.1594 320.375 31.1594H315.922V17.7903H320.375C320.956 17.7903 321.369 17.6842 321.614 17.472C321.89 17.2332 322.027 16.8619 322.027 16.3579V11.5434C322.027 11.0394 321.89 10.6813 321.614 10.4691C321.369 10.2303 320.956 10.111 320.375 10.111H300.82C300.238 10.111 299.81 10.2303 299.534 10.4691C299.29 10.6813 299.167 11.0394 299.167 11.5434V16.3579C299.167 16.8619 299.29 17.2332 299.534 17.472C299.81 17.6842 300.238 17.7903 300.82 17.7903H305.364V31.1594H300.82C300.238 31.1594 299.81 31.2788 299.534 31.5175C299.29 31.7297 299.167 32.0878 299.167 32.5918V37.3267C299.167 37.8307 299.29 38.2021 299.534 38.4408ZM328.2 38.7591H335.086C335.667 38.7591 336.08 38.653 336.325 38.4408C336.6 38.2021 336.738 37.8307 336.738 37.3267V24.1963L344.588 32.4327V37.3267C344.588 37.8307 344.71 38.2021 344.955 38.4408C345.23 38.653 345.659 38.7591 346.24 38.7591H353.126C353.707 38.7591 354.12 38.653 354.365 38.4408C354.641 38.2021 354.778 37.8307 354.778 37.3267V11.5434C354.778 11.0394 354.641 10.6813 354.365 10.4691C354.12 10.2303 353.707 10.111 353.126 10.111H346.24C345.659 10.111 345.23 10.2303 344.955 10.4691C344.71 10.6813 344.588 11.0394 344.588 11.5434V20.0185L335.682 11.1853C335.285 10.7874 334.871 10.5089 334.443 10.3497C334.045 10.1906 333.555 10.111 332.974 10.111H328.2C327.619 10.111 327.19 10.2303 326.915 10.4691C326.67 10.6813 326.547 11.0394 326.547 11.5434V37.3267C326.547 37.8307 326.67 38.2021 326.915 38.4408C327.19 38.653 327.619 38.7591 328.2 38.7591ZM306.65 79.6755H300.623C300.111 79.6755 299.734 79.5677 299.491 79.352C299.275 79.1093 299.167 78.7318 299.167 78.2195V52.0115C299.167 51.4992 299.275 51.1352 299.491 50.9195C299.734 50.6768 300.111 50.5555 300.623 50.5555H307.135C307.566 50.5555 307.917 50.6499 308.186 50.8386C308.483 51.0273 308.753 51.3374 308.995 51.7688L312.635 58.3613C312.77 58.6039 312.878 58.7792 312.959 58.8871C313.067 58.9949 313.202 59.0488 313.363 59.0488H313.727C313.889 59.0488 314.01 58.9949 314.091 58.8871C314.199 58.7792 314.321 58.6039 314.455 58.3613L318.055 51.7688C318.298 51.3374 318.554 51.0273 318.823 50.8386C319.12 50.6499 319.484 50.5555 319.915 50.5555H326.467C326.98 50.5555 327.344 50.6768 327.559 50.9195C327.802 51.1352 327.923 51.4992 327.923 52.0115V78.2195C327.923 78.7318 327.802 79.1093 327.559 79.352C327.344 79.5677 326.98 79.6755 326.467 79.6755H320.239C319.727 79.6755 319.349 79.5677 319.106 79.352C318.891 79.1093 318.783 78.7318 318.783 78.2195V63.9831L316.397 68.3915C316.154 68.8499 315.857 69.1869 315.507 69.4026C315.183 69.5914 314.765 69.6857 314.253 69.6857H312.635C312.123 69.6857 311.692 69.5914 311.341 69.4026C311.018 69.1869 310.734 68.8499 310.492 68.3915L308.106 63.9831V78.2195C308.106 78.7318 307.984 79.1093 307.742 79.352C307.526 79.5677 307.162 79.6755 306.65 79.6755ZM340.689 79.6755H347.241C347.753 79.6755 348.117 79.5677 348.333 79.352C348.576 79.1093 348.697 78.7318 348.697 78.2195V73.0831L354.844 64.7515C355.438 63.9156 355.842 63.1876 356.058 62.5675C356.274 61.9473 356.381 61.0171 356.381 59.7768V52.0115C356.381 51.4992 356.26 51.1352 356.017 50.9195C355.802 50.6768 355.438 50.5555 354.925 50.5555H348.899C348.387 50.5555 348.009 50.6768 347.767 50.9195C347.551 51.1352 347.443 51.4992 347.443 52.0115V58.6444C347.443 58.914 347.43 59.1971 347.403 59.4937C347.376 59.7903 347.268 60.0734 347.079 60.3431L345.219 63.2551C345.084 63.4977 344.936 63.673 344.774 63.7808C344.639 63.8887 344.464 63.9426 344.248 63.9426H343.844C343.628 63.9426 343.439 63.8887 343.277 63.7808C343.143 63.673 343.008 63.4977 342.873 63.2551L341.012 60.3431C340.824 60.0734 340.716 59.7903 340.689 59.4937C340.662 59.1971 340.648 58.914 340.648 58.6444V52.0115C340.648 51.4992 340.527 51.1352 340.284 50.9195C340.069 50.6768 339.705 50.5555 339.192 50.5555H332.964C332.452 50.5555 332.074 50.6768 331.832 50.9195C331.616 51.1352 331.508 51.4992 331.508 52.0115V59.7768C331.508 61.0171 331.602 61.9473 331.791 62.5675C332.007 63.1876 332.425 63.9156 333.045 64.7515L339.233 73.0426V78.2195C339.233 78.7318 339.341 79.1093 339.556 79.352C339.799 79.5677 340.177 79.6755 340.689 79.6755Z" fill="#F9C545"/>
</svg>
